HIERARCHY
ROOT Hips
{
	OFFSET -6.583065 104.355759 -1.477566
	CHANNELS 6 Xposition Yposition Zposition Xrotation Yrotation Zrotation
	JOINT Chest
	{
		OFFSET 1.947950 13.440147 1.312301
		CHANNELS 3 Xrotation Yrotation Zrotation
		JOINT Chest2
		{
			OFFSET 0.727180 20.867043 4.806705
			CHANNELS 3 Xrotation Yrotation Zrotation
			JOINT Chest3
			{
				OFFSET -0.360484 14.922714 0.049319
				CHANNELS 3 Xrotation Yrotation Zrotation
				JOINT Neck
				{
					OFFSET -1.816531 16.807007 3.583415
					CHANNELS 3 Xrotation Yrotation Zrotation
					JOINT Head
					{
						OFFSET -2.908383 8.895462 4.715916
						CHANNELS 3 Xrotation Yrotation Zrotation
						End Site
						{
							OFFSET -2.950796 8.911652 4.658650
						}
					}
				}
				JOINT LeftCollar
				{
					OFFSET 3.352820 13.761169 1.092334
					CHANNELS 3 Xrotation Yrotation Zrotation
					JOINT LeftUpArm
					{
						OFFSET -0.693355 8.704834 -15.239569
						CHANNELS 3 Xrotation Yrotation Zrotation
						JOINT LeftLowArm
						{
							OFFSET 0.546933 31.669281 -11.682676
							CHANNELS 3 Xrotation Yrotation Zrotation
							JOINT LeftHand
							{
								OFFSET -19.740007 1.116531 22.583910
								CHANNELS 3 Xrotation Yrotation Zrotation
								End Site
								{
									OFFSET -4.314299 0.244049 4.935839
								}
							}
						}
					}
				}
				JOINT RightCollar
				{
					OFFSET -1.436499 11.826843 7.737626
					CHANNELS 3 Xrotation Yrotation Zrotation
					JOINT RightUpArm
					{
						OFFSET -11.416099 -4.437927 12.588634
						CHANNELS 3 Xrotation Yrotation Zrotation
						JOINT RightLowArm
						{
							OFFSET 24.757961 -10.558838 20.378628
							CHANNELS 3 Xrotation Yrotation Zrotation
							JOINT RightHand
							{
								OFFSET 25.019156 16.004868 4.340549
								CHANNELS 3 Xrotation Yrotation Zrotation
								End Site
								{
									OFFSET 5.468174 3.498047 0.948662
								}
							}
						}
					}
				}
			}
		}
	}
	JOINT LeftUpLeg
	{
		OFFSET 8.553776 -0.735321 -5.168304
		CHANNELS 3 Xrotation Yrotation Zrotation
		JOINT LeftLowLeg
		{
			OFFSET 8.632231 -44.645863 13.274798
			CHANNELS 3 Xrotation Yrotation Zrotation
			JOINT LeftFoot
			{
				OFFSET -25.677814 -35.065880 -10.564159
				CHANNELS 3 Xrotation Yrotation Zrotation
				JOINT LeftToe
				{
					OFFSET -7.746336 -21.848486 4.711409
					CHANNELS 3 Xrotation Yrotation Zrotation
					End Site
					{
						OFFSET 3.811188 -17.915871 14.968475
					}
				}
			}
		}
	}
	JOINT RightUpLeg
	{
		OFFSET -8.553806 0.735123 5.168286
		CHANNELS 3 Xrotation Yrotation Zrotation
		JOINT RightLowLeg
		{
			OFFSET -0.018669 -47.180630 -4.242560
			CHANNELS 3 Xrotation Yrotation Zrotation
			JOINT RightFoot
			{
				OFFSET -0.066502 -40.901257 -18.101437
				CHANNELS 3 Xrotation Yrotation Zrotation
				JOINT RightToe
				{
					OFFSET 7.213423 -21.636702 6.275050
					CHANNELS 3 Xrotation Yrotation Zrotation
					End Site
					{
						OFFSET 8.198462 -11.803709 18.788660
					}
				}
			}
		}
	}
}
MOTION
Frames: 5
Frame Time: 0.033333
-3.149786 105.191109 -1.111722 -0.976109 -31.624623 3.117884 -7.059530 1.045164 -2.017752 10.419471 -1.626298 -1.639552 -12.551755 -17.773805 -13.498412 -14.663977 16.102642 -2.870669 -0.000001 0.000003 -0.000001 -34.743584 7.508026 -32.969070 -65.286431 18.427106 -58.302256 -65.085781 48.317390 -62.550394 0.000002 0.000002 -0.000000 25.854059 -17.247548 10.694168 32.131348 -37.666000 -28.878842 4.700482 -7.583947 -42.477018 -0.000001 0.000001 -0.000003 22.187429 -3.806943 -11.614882 -18.828590 6.005545 35.991474 -31.408089 2.955638 17.624740 -0.000001 0.000001 -0.000005 -4.956367 2.683116 -4.632083 -0.456501 0.212293 -8.178670 -15.155724 -0.064109 7.666884 0.000002 0.000003 -0.000001 
-3.147652 105.194397 -1.112967 -0.980294 -31.460579 3.112382 -6.833804 1.021483 -2.082221 9.878282 -1.579689 -1.328719 -12.312442 -17.704661 -13.757453 -14.483481 16.021981 -2.963180 -0.000001 0.000003 0.000003 -34.658682 7.370548 -33.089521 -65.110902 18.414680 -58.577000 -65.383140 48.367517 -62.159065 0.000005 0.000003 -0.000004 26.018943 -17.533195 10.889649 31.966098 -37.631948 -28.966429 4.567094 -7.451976 -42.555255 0.000002 0.000003 -0.000006 22.103018 -3.828117 -11.517669 -18.555657 5.968994 35.818905 -31.592285 2.928485 17.630865 -0.000002 0.000001 -0.000004 -5.074775 2.742225 -4.613975 -0.314017 0.194082 -8.134335 -15.324547 -0.528451 7.366619 0.000007 0.000001 0.000000 
-3.141023 105.203865 -1.116688 -1.253306 -31.866852 3.096792 -6.088892 1.027762 -2.551631 8.355113 -1.439123 -0.535928 -11.532670 -17.522345 -14.154878 -14.367259 16.095474 -3.078966 0.000002 0.000002 -0.000001 -34.719897 7.149388 -33.211265 -65.565964 18.447520 -57.947824 -65.638794 48.001931 -62.279905 0.000003 0.000003 0.000001 25.993299 -17.546951 11.044816 32.121417 -38.068117 -28.776413 4.930462 -7.424258 -42.635615 -0.000000 -0.000000 -0.000002 21.965209 -3.846444 -11.474246 -18.106965 5.999686 35.411689 -31.453977 2.988655 17.703695 -0.000000 -0.000002 -0.000003 -4.849579 2.733098 -4.828039 -0.515483 0.134346 -7.958995 -15.347399 -0.374189 7.623362 0.000004 0.000002 0.000003 
-3.135483 105.213318 -1.120788 -1.876980 -31.824225 3.128895 -5.449813 1.023773 -2.992711 7.972837 -1.406906 -0.336338 -11.385732 -17.186071 -14.112510 -14.139927 15.948625 -3.030252 -0.000000 0.000005 0.000002 -34.836349 7.210138 -33.237248 -65.294027 18.166635 -58.323320 -66.488033 47.685796 -61.908992 -0.000001 0.000001 -0.000000 26.242828 -18.411337 11.449374 32.003121 -38.402315 -28.826001 5.181275 -7.473309 -43.057024 0.000005 0.000003 -0.000005 22.481612 -3.991778 -11.833644 -18.225677 5.929783 35.481863 -31.629124 2.992105 17.759504 0.000002 -0.000003 -0.000002 -4.585893 2.700362 -5.008232 -0.466401 0.214171 -7.976938 -15.236059 -0.475854 7.507210 0.000002 -0.000001 -0.000000 
-3.125828 105.221283 -1.122356 -1.877669 -31.635073 3.111159 -5.368560 1.004173 -2.952920 7.913748 -1.474754 -0.201785 -11.458576 -17.391422 -14.291464 -14.112773 16.039337 -3.078520 -0.000002 0.000004 0.000003 -34.831284 7.193609 -33.245478 -65.408992 18.138122 -58.229159 -66.361264 47.654233 -62.147304 0.000003 0.000000 -0.000004 26.018578 -17.972786 11.184745 32.135237 -38.132960 -28.613479 5.194909 -7.909927 -43.194779 0.000003 0.000002 -0.000007 22.580167 -3.965702 -11.893559 -18.307591 5.896391 35.568668 -31.629551 2.900282 17.462171 0.000002 0.000002 -0.000003 -4.438993 2.658069 -5.166760 -0.409729 0.266624 -7.941992 -15.123058 -0.472393 7.449657 0.000001 0.000003 0.000002 
